<?xml version="1.0" encoding="UTF-8"?>
<svg id="svg1" xmlns="http://www.w3.org/2000/svg" viewBox="0 0 1400 2053.33">
  <defs>
    <style>
      .cls-1 {
        fill: #7bc981;
      }

      .cls-2 {
        fill: #fff;
      }

      .cls-3 {
        fill: #165931;
      }
    </style>
  </defs>
  <rect id="background" width="1400" height="2053.33"/>
  <rect class="cls-3" width="1400" height="1400"/>
  <rect id="title_card" data-name="title card" class="cls-2" y="1246.4" width="1400" height="200"/>
  <circle class="cls-1" cx="703.6" cy="1352.07" r="80.76"/>
  <path d="M755.29,1313.42c0-.38-.19-.71-.49-.94-3.09-2.24-5.1-5.86-5.1-9.96s2.03-7.75,5.13-10c.29-.21.47-.53.47-.89v-4.8c0-.62-.5-1.12-1.12-1.12h-87.74c-9.33,0-16.89,7.57-16.89,16.89v91.86c0,9.33,7.56,16.89,16.89,16.89h85.82c1.67,0,3.03-1.36,3.03-3.03v-94.9s0,0,0,0ZM703.93,1314.56c-.39,0-.7.32-.7.7v42.9c0,1.64-1.98,2.45-3.13,1.28l-8.04-8.21c-.86-.87-2.26-.87-3.11,0l-8.04,8.21c-1.15,1.17-3.13.36-3.13-1.28v-42.9c0-.39-.32-.7-.7-.7h-6.7c-5.59,0-10.58-4.08-11.11-9.65-.61-6.38,4.4-11.75,10.65-11.75h75.25c-1.55,2.77-2.45,5.96-2.45,9.36,0,4.55,1.59,8.74,4.24,12.03h-43.02Z"/>
</svg>